{"asset":{"version":"2.0","generator":"Iron Front original operator authoring"},"scene":0,"scenes":[{"nodes":[0]}],"nodes":[{"name":"operator","translation":[0,0,0],"children":[1]},{"name":"calibration","translation":[0,0,0],"children":[2,21,22,33,39,45,46,47,48,49,51]},{"name":"torso-joint","translation":[0,1.08,0],"children":[3,4,5,6,7,8,9,10,11,12,13,14,15,23,28]},{"name":"head-joint","translation":[0,0.58,0],"children":[16,17,18,19,20]},{"name":"jacket","translation":[0,0,0],"children":[],"mesh":0},{"name":"plate-carrier","translation":[0,0,0],"children":[],"mesh":1},{"name":"mag-pouch","translation":[0,0,0],"children":[],"mesh":2},{"name":"mag-pouch","translation":[0,0,0],"children":[],"mesh":3},{"name":"mag-pouch","translation":[0,0,0],"children":[],"mesh":4},{"name":"mag-pouch","translation":[0,0,0],"children":[],"mesh":5},{"name":"shoulder-strap","translation":[0,0,0],"children":[],"mesh":6},{"name":"shoulder-strap","translation":[0,0,0],"children":[],"mesh":7},{"name":"backpack","translation":[0,0,0],"children":[],"mesh":8},{"name":"radio","translation":[0,0,0],"children":[],"mesh":9},{"name":"antenna","translation":[0,0,0],"children":[],"mesh":10},{"name":"neck","translation":[0,0,0],"children":[],"mesh":11},{"name":"head","translation":[0,0,0],"children":[],"mesh":12},{"name":"helmet","translation":[0,0,0],"children":[],"mesh":13},{"name":"goggles","translation":[0,0,0],"children":[],"mesh":14},{"name":"helmet-mount","translation":[0,0,0],"children":[],"mesh":15},{"name":"face-wrap","translation":[0,0,0],"children":[],"mesh":16},{"name":"belt","translation":[0,0,0],"children":[],"mesh":17},{"name":"trousers-hip","translation":[0,0,0],"children":[],"mesh":18},{"name":"left-arm","translation":[-0.31,0.45,0],"children":[24,25,26,27]},{"name":"sleeve","translation":[0,0,0],"children":[],"mesh":19},{"name":"forearm","translation":[0,0,0],"children":[],"mesh":20},{"name":"glove","translation":[0,0,0],"children":[],"mesh":21},{"name":"elbow-pad","translation":[0,0,0],"children":[],"mesh":22},{"name":"right-arm","translation":[0.31,0.45,0],"children":[29,30,31,32]},{"name":"sleeve","translation":[0,0,0],"children":[],"mesh":23},{"name":"forearm","translation":[0,0,0],"children":[],"mesh":24},{"name":"glove","translation":[0,0,0],"children":[],"mesh":25},{"name":"elbow-pad","translation":[0,0,0],"children":[],"mesh":26},{"name":"left-leg","translation":[-0.15,0.82,0],"children":[34,35,36,37,38]},{"name":"thigh","translation":[0,0,0],"children":[],"mesh":27},{"name":"shin","translation":[0,0,0],"children":[],"mesh":28},{"name":"knee-pad","translation":[0,0,0],"children":[],"mesh":29},{"name":"boot","translation":[0,0,0],"children":[],"mesh":30},{"name":"cargo-pocket","translation":[0,0,0],"children":[],"mesh":31},{"name":"right-leg","translation":[0.15,0.82,0],"children":[40,41,42,43,44]},{"name":"thigh","translation":[0,0,0],"children":[],"mesh":32},{"name":"shin","translation":[0,0,0],"children":[],"mesh":33},{"name":"knee-pad","translation":[0,0,0],"children":[],"mesh":34},{"name":"boot","translation":[0,0,0],"children":[],"mesh":35},{"name":"cargo-pocket","translation":[0,0,0],"children":[],"mesh":36},{"name":"socket-head","translation":[0,1.66,0],"children":[]},{"name":"socket-name","translation":[0,2.04,0],"children":[]},{"name":"socket-leftHand","translation":[-0.29,1.18,-0.28],"children":[]},{"name":"socket-rightHand","translation":[0.29,1.16,-0.22],"children":[]},{"name":"socket-weapon","translation":[0.18,1.2,-0.28],"children":[50]},{"name":"world-weapon","translation":[0,0,0],"children":[52,53,54,55]},{"name":"socket-muzzle","translation":[0.18,1.2,-0.93],"children":[]},{"name":"world-receiver","translation":[0,0,0],"children":[],"mesh":37},{"name":"world-stock","translation":[0,0,0],"children":[],"mesh":38},{"name":"world-magazine","translation":[0,0,0],"children":[],"mesh":39},{"name":"world-barrel","translation":[0,0,0],"children":[],"mesh":40}],"meshes":[{"primitives":[{"attributes":{"POSITION":0,"NORMAL":1},"indices":2,"material":0}]},{"primitives":[{"attributes":{"POSITION":3,"NORMAL":4},"indices":5,"material":1}]},{"primitives":[{"attributes":{"POSITION":6,"NORMAL":7},"indices":8,"material":2}]},{"primitives":[{"attributes":{"POSITION":9,"NORMAL":10},"indices":11,"material":2}]},{"primitives":[{"attributes":{"POSITION":12,"NORMAL":13},"indices":14,"material":2}]},{"primitives":[{"attributes":{"POSITION":15,"NORMAL":16},"indices":17,"material":2}]},{"primitives":[{"attributes":{"POSITION":18,"NORMAL":19},"indices":20,"material":2}]},{"primitives":[{"attributes":{"POSITION":21,"NORMAL":22},"indices":23,"material":2}]},{"primitives":[{"attributes":{"POSITION":24,"NORMAL":25},"indices":26,"material":2}]},{"primitives":[{"attributes":{"POSITION":27,"NORMAL":28},"indices":29,"material":3}]},{"primitives":[{"attributes":{"POSITION":30,"NORMAL":31},"indices":32,"material":4}]},{"primitives":[{"attributes":{"POSITION":33,"NORMAL":34},"indices":35,"material":5}]},{"primitives":[{"attributes":{"POSITION":36,"NORMAL":37},"indices":38,"material":5}]},{"primitives":[{"attributes":{"POSITION":39,"NORMAL":40},"indices":41,"material":1}]},{"primitives":[{"attributes":{"POSITION":42,"NORMAL":43},"indices":44,"material":3}]},{"primitives":[{"attributes":{"POSITION":45,"NORMAL":46},"indices":47,"material":4}]},{"primitives":[{"attributes":{"POSITION":48,"NORMAL":49},"indices":50,"material":2}]},{"primitives":[{"attributes":{"POSITION":51,"NORMAL":52},"indices":53,"material":3}]},{"primitives":[{"attributes":{"POSITION":54,"NORMAL":55},"indices":56,"material":0}]},{"primitives":[{"attributes":{"POSITION":57,"NORMAL":58},"indices":59,"material":0}]},{"primitives":[{"attributes":{"POSITION":60,"NORMAL":61},"indices":62,"material":0}]},{"primitives":[{"attributes":{"POSITION":63,"NORMAL":64},"indices":65,"material":2}]},{"primitives":[{"attributes":{"POSITION":66,"NORMAL":67},"indices":68,"material":1}]},{"primitives":[{"attributes":{"POSITION":69,"NORMAL":70},"indices":71,"material":0}]},{"primitives":[{"attributes":{"POSITION":72,"NORMAL":73},"indices":74,"material":0}]},{"primitives":[{"attributes":{"POSITION":75,"NORMAL":76},"indices":77,"material":2}]},{"primitives":[{"attributes":{"POSITION":78,"NORMAL":79},"indices":80,"material":1}]},{"primitives":[{"attributes":{"POSITION":81,"NORMAL":82},"indices":83,"material":0}]},{"primitives":[{"attributes":{"POSITION":84,"NORMAL":85},"indices":86,"material":0}]},{"primitives":[{"attributes":{"POSITION":87,"NORMAL":88},"indices":89,"material":1}]},{"primitives":[{"attributes":{"POSITION":90,"NORMAL":91},"indices":92,"material":3}]},{"primitives":[{"attributes":{"POSITION":93,"NORMAL":94},"indices":95,"material":2}]},{"primitives":[{"attributes":{"POSITION":96,"NORMAL":97},"indices":98,"material":0}]},{"primitives":[{"attributes":{"POSITION":99,"NORMAL":100},"indices":101,"material":0}]},{"primitives":[{"attributes":{"POSITION":102,"NORMAL":103},"indices":104,"material":1}]},{"primitives":[{"attributes":{"POSITION":105,"NORMAL":106},"indices":107,"material":3}]},{"primitives":[{"attributes":{"POSITION":108,"NORMAL":109},"indices":110,"material":2}]},{"primitives":[{"attributes":{"POSITION":111,"NORMAL":112},"indices":113,"material":4}]},{"primitives":[{"attributes":{"POSITION":114,"NORMAL":115},"indices":116,"material":1}]},{"primitives":[{"attributes":{"POSITION":117,"NORMAL":118},"indices":119,"material":1}]},{"primitives":[{"attributes":{"POSITION":120,"NORMAL":121},"indices":122,"material":4}]}],"materials":[{"name":"fatigues","pbrMetallicRoughness":{"baseColorFactor":[0.26,0.29,0.21,1],"metallicFactor":0,"roughnessFactor":0.9}},{"name":"armor","pbrMetallicRoughness":{"baseColorFactor":[0.19,0.22,0.17,1],"metallicFactor":0,"roughnessFactor":0.9}},{"name":"webbing","pbrMetallicRoughness":{"baseColorFactor":[0.34,0.32,0.23,1],"metallicFactor":0,"roughnessFactor":0.9}},{"name":"rubber","pbrMetallicRoughness":{"baseColorFactor":[0.07,0.08,0.07,1],"metallicFactor":0,"roughnessFactor":0.9}},{"name":"metal","pbrMetallicRoughness":{"baseColorFactor":[0.13,0.15,0.15,1],"metallicFactor":0.65,"roughnessFactor":0.42}},{"name":"skin","pbrMetallicRoughness":{"baseColorFactor":[0.47,0.34,0.24,1],"metallicFactor":0,"roughnessFactor":0.9}}],"accessors":[{"bufferView":0,"componentType":5126,"count":504,"type":"VEC3","min":[-0.2800000011920929,-0.17000000178813934,-0.18000000715255737],"max":[0.2800000011920929,0.550000011920929,0.18000000715255737]},{"bufferView":1,"componentType":5126,"count":504,"type":"VEC3","min":[-0.9137601852416992,-0.9636934399604797,-0.980786919593811],"max":[0.9137601852416992,0.9636934399604797,0.980786919593811]},{"bufferView":2,"componentType":5125,"count":504,"type":"SCALAR"},{"bufferView":3,"componentType":5126,"count":36,"type":"VEC3","min":[-0.2150000035762787,0.019999999552965164,-0.19499999284744263],"max":[0.2150000035762787,0.4399999976158142,-0.10499999672174454]},{"bufferView":4,"componentType":5126,"count":36,"type":"VEC3","min":[-1,-1,-1],"max":[1,1,1]},{"bufferView":5,"componentType":5125,"count":36,"type":"SCALAR"},{"bufferView":6,"componentType":5126,"count":36,"type":"VEC3","min":[-0.19249999523162842,0.07999999821186066,-0.24250000715255737],"max":[-0.10750000178813934,0.25999999046325684,-0.1875]},{"bufferView":7,"componentType":5126,"count":36,"type":"VEC3","min":[-1,-1,-1],"max":[1,1,1]},{"bufferView":8,"componentType":5125,"count":36,"type":"SCALAR"},{"bufferView":9,"componentType":5126,"count":36,"type":"VEC3","min":[-0.0925000011920929,0.07999999821186066,-0.24250000715255737],"max":[-0.007499999832361937,0.25999999046325684,-0.1875]},{"bufferView":10,"componentType":5126,"count":36,"type":"VEC3","min":[-1,-1,-1],"max":[1,1,1]},{"bufferView":11,"componentType":5125,"count":36,"type":"SCALAR"},{"bufferView":12,"componentType":5126,"count":36,"type":"VEC3","min":[0.007499999832361937,0.07999999821186066,-0.24250000715255737],"max":[0.0925000011920929,0.25999999046325684,-0.1875]},{"bufferView":13,"componentType":5126,"count":36,"type":"VEC3","min":[-1,-1,-1],"max":[1,1,1]},{"bufferView":14,"componentType":5125,"count":36,"type":"SCALAR"},{"bufferView":15,"componentType":5126,"count":36,"type":"VEC3","min":[0.10750000178813934,0.07999999821186066,-0.24250000715255737],"max":[0.19249999523162842,0.25999999046325684,-0.1875]},{"bufferView":16,"componentType":5126,"count":36,"type":"VEC3","min":[-1,-1,-1],"max":[1,1,1]},{"bufferView":17,"componentType":5125,"count":36,"type":"SCALAR"},{"bufferView":18,"componentType":5126,"count":36,"type":"VEC3","min":[-0.2224999964237213,0.375,-0.17499999701976776],"max":[-0.1574999988079071,0.5049999952316284,-0.02500000037252903]},{"bufferView":19,"componentType":5126,"count":36,"type":"VEC3","min":[-1,-1,-1],"max":[1,1,1]},{"bufferView":20,"componentType":5125,"count":36,"type":"SCALAR"},{"bufferView":21,"componentType":5126,"count":36,"type":"VEC3","min":[0.1574999988079071,0.375,-0.17499999701976776],"max":[0.2224999964237213,0.5049999952316284,-0.02500000037252903]},{"bufferView":22,"componentType":5126,"count":36,"type":"VEC3","min":[-1,-1,-1],"max":[1,1,1]},{"bufferView":23,"componentType":5125,"count":36,"type":"SCALAR"},{"bufferView":24,"componentType":5126,"count":36,"type":"VEC3","min":[-0.17499999701976776,-0.009999999776482582,0.11500000208616257],"max":[0.17499999701976776,0.38999998569488525,0.29499998688697815]},{"bufferView":25,"componentType":5126,"count":36,"type":"VEC3","min":[-1,-1,-1],"max":[1,1,1]},{"bufferView":26,"componentType":5125,"count":36,"type":"SCALAR"},{"bufferView":27,"componentType":5126,"count":36,"type":"VEC3","min":[0.19750000536441803,0.23499999940395355,0],"max":[0.2824999988079071,0.4050000011920929,0.07999999821186066]},{"bufferView":28,"componentType":5126,"count":36,"type":"VEC3","min":[-1,-1,-1],"max":[1,1,1]},{"bufferView":29,"componentType":5125,"count":36,"type":"SCALAR"},{"bufferView":30,"componentType":5126,"count":36,"type":"VEC3","min":[0.23600000143051147,0.4000000059604645,0.035999998450279236],"max":[0.24400000274181366,0.7400000095367432,0.04399999976158142]},{"bufferView":31,"componentType":5126,"count":36,"type":"VEC3","min":[-1,-1,-1],"max":[1,1,1]},{"bufferView":32,"componentType":5125,"count":36,"type":"SCALAR"},{"bufferView":33,"componentType":5126,"count":504,"type":"VEC3","min":[-0.06499999761581421,0.4000000059604645,-0.06499999761581421],"max":[0.06499999761581421,0.5799999833106995,0.06499999761581421]},{"bufferView":34,"componentType":5126,"count":504,"type":"VEC3","min":[-0.9567583799362183,-0.9616715312004089,-0.9567583799362183],"max":[0.9567583799362183,0.9616715312004089,0.9567583799362183]},{"bufferView":35,"componentType":5125,"count":504,"type":"SCALAR"},{"bufferView":36,"componentType":5126,"count":504,"type":"VEC3","min":[-0.11500000208616257,-0.17499999701976776,-0.10999999940395355],"max":[0.11500000208616257,0.125,0.10999999940395355]},{"bufferView":37,"componentType":5126,"count":504,"type":"VEC3","min":[-0.9527145028114319,-0.9655653834342957,-0.959161639213562],"max":[0.9527145028114319,0.9655653834342957,0.959161639213562]},{"bufferView":38,"componentType":5125,"count":504,"type":"SCALAR"},{"bufferView":39,"componentType":5126,"count":504,"type":"VEC3","min":[-0.17000000178813934,-0.05000000074505806,-0.1599999964237213],"max":[0.17000000178813934,0.1899999976158142,0.1599999964237213]},{"bufferView":40,"componentType":5126,"count":504,"type":"VEC3","min":[-0.9282931089401245,-0.9895111322402954,-0.939085841178894],"max":[0.9282931089401245,0.9895111322402954,0.939085841178894]},{"bufferView":41,"componentType":5125,"count":504,"type":"SCALAR"},{"bufferView":42,"componentType":5126,"count":36,"type":"VEC3","min":[-0.10499999672174454,-0.009499999694526196,-0.13249999284744263],"max":[0.10499999672174454,0.045499999076128006,-0.09749999642372131]},{"bufferView":43,"componentType":5126,"count":36,"type":"VEC3","min":[-1,-1,-1],"max":[1,1,1]},{"bufferView":44,"componentType":5125,"count":36,"type":"SCALAR"},{"bufferView":45,"componentType":5126,"count":36,"type":"VEC3","min":[-0.032499998807907104,0.07750000059604645,-0.16249999403953552],"max":[0.032499998807907104,0.12250000238418579,-0.13750000298023224]},{"bufferView":46,"componentType":5126,"count":36,"type":"VEC3","min":[-1,-1,-1],"max":[1,1,1]},{"bufferView":47,"componentType":5125,"count":36,"type":"SCALAR"},{"bufferView":48,"componentType":5126,"count":36,"type":"VEC3","min":[-0.0949999988079071,-0.10750000178813934,-0.11749999970197678],"max":[0.0949999988079071,-0.032499998807907104,-0.05249999836087227]},{"bufferView":49,"componentType":5126,"count":36,"type":"VEC3","min":[-1,-1,-1],"max":[1,1,1]},{"bufferView":50,"componentType":5125,"count":36,"type":"SCALAR"},{"bufferView":51,"componentType":5126,"count":36,"type":"VEC3","min":[-0.23499999940395355,0.8299999833106995,-0.14499999582767487],"max":[0.23499999940395355,0.9300000071525574,0.14499999582767487]},{"bufferView":52,"componentType":5126,"count":36,"type":"VEC3","min":[-1,-1,-1],"max":[1,1,1]},{"bufferView":53,"componentType":5125,"count":36,"type":"SCALAR"},{"bufferView":54,"componentType":5126,"count":504,"type":"VEC3","min":[-0.25,0.6600000262260437,-0.17000000178813934],"max":[0.25,1.0399999618530273,0.17000000178813934]},{"bufferView":55,"componentType":5126,"count":504,"type":"VEC3","min":[-0.9039615392684937,-0.9870548844337463,-0.9690606594085693],"max":[0.9039615392684937,0.9870548844337463,0.9690606594085693]},{"bufferView":56,"componentType":5125,"count":504,"type":"SCALAR"},{"bufferView":57,"componentType":5126,"count":504,"type":"VEC3","min":[-0.0949999988079071,-0.46000000834465027,-0.0949999988079071],"max":[0.0949999988079071,0.019999999552965164,0.0949999988079071]},{"bufferView":58,"componentType":5126,"count":504,"type":"VEC3","min":[-0.9631443619728088,-0.8871288299560547,-0.9631443619728088],"max":[0.9631443619728088,0.8871288299560547,0.9631443619728088]},{"bufferView":59,"componentType":5125,"count":504,"type":"SCALAR"},{"bufferView":60,"componentType":5126,"count":504,"type":"VEC3","min":[-0.07800000160932541,-0.6600000262260437,-0.07800000160932541],"max":[0.07800000160932541,-0.2800000011920929,0.07800000160932541]},{"bufferView":61,"componentType":5126,"count":504,"type":"VEC3","min":[-0.9629350304603577,-0.893846333026886,-0.9629350304603577],"max":[0.9629350304603577,0.893846333026886,0.9629350304603577]},{"bufferView":62,"componentType":5125,"count":504,"type":"SCALAR"},{"bufferView":63,"componentType":5126,"count":504,"type":"VEC3","min":[-0.07000000029802322,-0.75,-0.07500000298023224],"max":[0.07000000029802322,-0.5699999928474426,0.07500000298023224]},{"bufferView":64,"componentType":5126,"count":504,"type":"VEC3","min":[-0.9593774676322937,-0.9705211520195007,-0.9492023587226868],"max":[0.9593774676322937,0.9705211520195007,0.9492023587226868]},{"bufferView":65,"componentType":5125,"count":504,"type":"SCALAR"},{"bufferView":66,"componentType":5126,"count":36,"type":"VEC3","min":[-0.05999999865889549,-0.4099999964237213,0.05000000074505806],"max":[0.05999999865889549,-0.28999999165534973,0.09000000357627869]},{"bufferView":67,"componentType":5126,"count":36,"type":"VEC3","min":[-1,-1,-1],"max":[1,1,1]},{"bufferView":68,"componentType":5125,"count":36,"type":"SCALAR"},{"bufferView":69,"componentType":5126,"count":504,"type":"VEC3","min":[-0.0949999988079071,-0.46000000834465027,-0.0949999988079071],"max":[0.0949999988079071,0.019999999552965164,0.0949999988079071]},{"bufferView":70,"componentType":5126,"count":504,"type":"VEC3","min":[-0.9631443619728088,-0.8871288299560547,-0.9631443619728088],"max":[0.9631443619728088,0.8871288299560547,0.9631443619728088]},{"bufferView":71,"componentType":5125,"count":504,"type":"SCALAR"},{"bufferView":72,"componentType":5126,"count":504,"type":"VEC3","min":[-0.07800000160932541,-0.6600000262260437,-0.07800000160932541],"max":[0.07800000160932541,-0.2800000011920929,0.07800000160932541]},{"bufferView":73,"componentType":5126,"count":504,"type":"VEC3","min":[-0.9629350304603577,-0.893846333026886,-0.9629350304603577],"max":[0.9629350304603577,0.893846333026886,0.9629350304603577]},{"bufferView":74,"componentType":5125,"count":504,"type":"SCALAR"},{"bufferView":75,"componentType":5126,"count":504,"type":"VEC3","min":[-0.07000000029802322,-0.75,-0.07500000298023224],"max":[0.07000000029802322,-0.5699999928474426,0.07500000298023224]},{"bufferView":76,"componentType":5126,"count":504,"type":"VEC3","min":[-0.9593774676322937,-0.9705211520195007,-0.9492023587226868],"max":[0.9593774676322937,0.9705211520195007,0.9492023587226868]},{"bufferView":77,"componentType":5125,"count":504,"type":"SCALAR"},{"bufferView":78,"componentType":5126,"count":36,"type":"VEC3","min":[-0.05999999865889549,-0.4099999964237213,0.05000000074505806],"max":[0.05999999865889549,-0.28999999165534973,0.09000000357627869]},{"bufferView":79,"componentType":5126,"count":36,"type":"VEC3","min":[-1,-1,-1],"max":[1,1,1]},{"bufferView":80,"componentType":5125,"count":36,"type":"SCALAR"},{"bufferView":81,"componentType":5126,"count":504,"type":"VEC3","min":[-0.11500000208616257,-0.4300000071525574,-0.12999999523162842],"max":[0.11500000208616257,0.05000000074505806,0.12999999523162842]},{"bufferView":82,"componentType":5126,"count":504,"type":"VEC3","min":[-0.9688810110092163,-0.9336318969726562,-0.9520111680030823],"max":[0.9688810110092163,0.9336318969726562,0.9520111680030823]},{"bufferView":83,"componentType":5125,"count":504,"type":"SCALAR"},{"bufferView":84,"componentType":5126,"count":504,"type":"VEC3","min":[-0.08500000089406967,-0.7699999809265137,-0.09000000357627869],"max":[0.08500000089406967,-0.3100000023841858,0.09000000357627869]},{"bufferView":85,"componentType":5126,"count":504,"type":"VEC3","min":[-0.9669873714447021,-0.8841597437858582,-0.9593456387519836],"max":[0.9669873714447021,0.8841597437858582,0.9593456387519836]},{"bufferView":86,"componentType":5125,"count":504,"type":"SCALAR"},{"bufferView":87,"componentType":5126,"count":36,"type":"VEC3","min":[-0.06750000268220901,-0.4399999976158142,-0.12999999523162842],"max":[0.06750000268220901,-0.2800000011920929,-0.07999999821186066]},{"bufferView":88,"componentType":5126,"count":36,"type":"VEC3","min":[-1,-1,-1],"max":[1,1,1]},{"bufferView":89,"componentType":5125,"count":36,"type":"SCALAR"},{"bufferView":90,"componentType":5126,"count":504,"type":"VEC3","min":[-0.10000000149011612,-0.8299999833106995,-0.23000000417232513],"max":[0.10000000149011612,-0.6600000262260437,0.10999999940395355]},{"bufferView":91,"componentType":5126,"count":504,"type":"VEC3","min":[-0.9624260067939758,-0.9940810203552246,-0.8556836843490601],"max":[0.9624260067939758,0.9940810203552246,0.8556836843490601]},{"bufferView":92,"componentType":5125,"count":504,"type":"SCALAR"},{"bufferView":93,"componentType":5126,"count":36,"type":"VEC3","min":[-0.12999999523162842,-0.28999999165534973,-0.08500000089406967],"max":[-0.05000000074505806,-0.10999999940395355,0.08500000089406967]},{"bufferView":94,"componentType":5126,"count":36,"type":"VEC3","min":[-1,-1,-1],"max":[1,1,1]},{"bufferView":95,"componentType":5125,"count":36,"type":"SCALAR"},{"bufferView":96,"componentType":5126,"count":504,"type":"VEC3","min":[-0.11500000208616257,-0.4300000071525574,-0.12999999523162842],"max":[0.11500000208616257,0.05000000074505806,0.12999999523162842]},{"bufferView":97,"componentType":5126,"count":504,"type":"VEC3","min":[-0.9688810110092163,-0.9336318969726562,-0.9520111680030823],"max":[0.9688810110092163,0.9336318969726562,0.9520111680030823]},{"bufferView":98,"componentType":5125,"count":504,"type":"SCALAR"},{"bufferView":99,"componentType":5126,"count":504,"type":"VEC3","min":[-0.08500000089406967,-0.7699999809265137,-0.09000000357627869],"max":[0.08500000089406967,-0.3100000023841858,0.09000000357627869]},{"bufferView":100,"componentType":5126,"count":504,"type":"VEC3","min":[-0.9669873714447021,-0.8841597437858582,-0.9593456387519836],"max":[0.9669873714447021,0.8841597437858582,0.9593456387519836]},{"bufferView":101,"componentType":5125,"count":504,"type":"SCALAR"},{"bufferView":102,"componentType":5126,"count":36,"type":"VEC3","min":[-0.06750000268220901,-0.4399999976158142,-0.12999999523162842],"max":[0.06750000268220901,-0.2800000011920929,-0.07999999821186066]},{"bufferView":103,"componentType":5126,"count":36,"type":"VEC3","min":[-1,-1,-1],"max":[1,1,1]},{"bufferView":104,"componentType":5125,"count":36,"type":"SCALAR"},{"bufferView":105,"componentType":5126,"count":504,"type":"VEC3","min":[-0.10000000149011612,-0.8299999833106995,-0.23000000417232513],"max":[0.10000000149011612,-0.6600000262260437,0.10999999940395355]},{"bufferView":106,"componentType":5126,"count":504,"type":"VEC3","min":[-0.9624260067939758,-0.9940810203552246,-0.8556836843490601],"max":[0.9624260067939758,0.9940810203552246,0.8556836843490601]},{"bufferView":107,"componentType":5125,"count":504,"type":"SCALAR"},{"bufferView":108,"componentType":5126,"count":36,"type":"VEC3","min":[0.05000000074505806,-0.28999999165534973,-0.08500000089406967],"max":[0.12999999523162842,-0.10999999940395355,0.08500000089406967]},{"bufferView":109,"componentType":5126,"count":36,"type":"VEC3","min":[-1,-1,-1],"max":[1,1,1]},{"bufferView":110,"componentType":5125,"count":36,"type":"SCALAR"},{"bufferView":111,"componentType":5126,"count":36,"type":"VEC3","min":[-0.032499998807907104,-0.042500000447034836,-0.25999999046325684],"max":[0.032499998807907104,0.042500000447034836,0.019999999552965164]},{"bufferView":112,"componentType":5126,"count":36,"type":"VEC3","min":[-1,-1,-1],"max":[1,1,1]},{"bufferView":113,"componentType":5125,"count":36,"type":"SCALAR"},{"bufferView":114,"componentType":5126,"count":36,"type":"VEC3","min":[-0.029999999329447746,-0.05999999865889549,0.03500000014901161],"max":[0.029999999329447746,0.03999999910593033,0.24500000476837158]},{"bufferView":115,"componentType":5126,"count":36,"type":"VEC3","min":[-1,-1,-1],"max":[1,1,1]},{"bufferView":116,"componentType":5125,"count":36,"type":"SCALAR"},{"bufferView":117,"componentType":5126,"count":36,"type":"VEC3","min":[-0.02500000037252903,-0.2199999988079071,-0.12999999523162842],"max":[0.02500000037252903,-0.019999999552965164,-0.05000000074505806]},{"bufferView":118,"componentType":5126,"count":36,"type":"VEC3","min":[-1,-1,-1],"max":[1,1,1]},{"bufferView":119,"componentType":5125,"count":36,"type":"SCALAR"},{"bufferView":120,"componentType":5126,"count":36,"type":"VEC3","min":[-0.012500000186264515,-0.012500000186264515,-0.6200000047683716],"max":[0.012500000186264515,0.012500000186264515,-0.23999999463558197]},{"bufferView":121,"componentType":5126,"count":36,"type":"VEC3","min":[-1,-1,-1],"max":[1,1,1]},{"bufferView":122,"componentType":5125,"count":36,"type":"SCALAR"}],"bufferViews":[{"buffer":0,"byteOffset":0,"byteLength":6048},{"buffer":0,"byteOffset":6048,"byteLength":6048},{"buffer":0,"byteOffset":12096,"byteLength":2016},{"buffer":0,"byteOffset":14112,"byteLength":432},{"buffer":0,"byteOffset":14544,"byteLength":432},{"buffer":0,"byteOffset":14976,"byteLength":144},{"buffer":0,"byteOffset":15120,"byteLength":432},{"buffer":0,"byteOffset":15552,"byteLength":432},{"buffer":0,"byteOffset":15984,"byteLength":144},{"buffer":0,"byteOffset":16128,"byteLength":432},{"buffer":0,"byteOffset":16560,"byteLength":432},{"buffer":0,"byteOffset":16992,"byteLength":144},{"buffer":0,"byteOffset":17136,"byteLength":432},{"buffer":0,"byteOffset":17568,"byteLength":432},{"buffer":0,"byteOffset":18000,"byteLength":144},{"buffer":0,"byteOffset":18144,"byteLength":432},{"buffer":0,"byteOffset":18576,"byteLength":432},{"buffer":0,"byteOffset":19008,"byteLength":144},{"buffer":0,"byteOffset":19152,"byteLength":432},{"buffer":0,"byteOffset":19584,"byteLength":432},{"buffer":0,"byteOffset":20016,"byteLength":144},{"buffer":0,"byteOffset":20160,"byteLength":432},{"buffer":0,"byteOffset":20592,"byteLength":432},{"buffer":0,"byteOffset":21024,"byteLength":144},{"buffer":0,"byteOffset":21168,"byteLength":432},{"buffer":0,"byteOffset":21600,"byteLength":432},{"buffer":0,"byteOffset":22032,"byteLength":144},{"buffer":0,"byteOffset":22176,"byteLength":432},{"buffer":0,"byteOffset":22608,"byteLength":432},{"buffer":0,"byteOffset":23040,"byteLength":144},{"buffer":0,"byteOffset":23184,"byteLength":432},{"buffer":0,"byteOffset":23616,"byteLength":432},{"buffer":0,"byteOffset":24048,"byteLength":144},{"buffer":0,"byteOffset":24192,"byteLength":6048},{"buffer":0,"byteOffset":30240,"byteLength":6048},{"buffer":0,"byteOffset":36288,"byteLength":2016},{"buffer":0,"byteOffset":38304,"byteLength":6048},{"buffer":0,"byteOffset":44352,"byteLength":6048},{"buffer":0,"byteOffset":50400,"byteLength":2016},{"buffer":0,"byteOffset":52416,"byteLength":6048},{"buffer":0,"byteOffset":58464,"byteLength":6048},{"buffer":0,"byteOffset":64512,"byteLength":2016},{"buffer":0,"byteOffset":66528,"byteLength":432},{"buffer":0,"byteOffset":66960,"byteLength":432},{"buffer":0,"byteOffset":67392,"byteLength":144},{"buffer":0,"byteOffset":67536,"byteLength":432},{"buffer":0,"byteOffset":67968,"byteLength":432},{"buffer":0,"byteOffset":68400,"byteLength":144},{"buffer":0,"byteOffset":68544,"byteLength":432},{"buffer":0,"byteOffset":68976,"byteLength":432},{"buffer":0,"byteOffset":69408,"byteLength":144},{"buffer":0,"byteOffset":69552,"byteLength":432},{"buffer":0,"byteOffset":69984,"byteLength":432},{"buffer":0,"byteOffset":70416,"byteLength":144},{"buffer":0,"byteOffset":70560,"byteLength":6048},{"buffer":0,"byteOffset":76608,"byteLength":6048},{"buffer":0,"byteOffset":82656,"byteLength":2016},{"buffer":0,"byteOffset":84672,"byteLength":6048},{"buffer":0,"byteOffset":90720,"byteLength":6048},{"buffer":0,"byteOffset":96768,"byteLength":2016},{"buffer":0,"byteOffset":98784,"byteLength":6048},{"buffer":0,"byteOffset":104832,"byteLength":6048},{"buffer":0,"byteOffset":110880,"byteLength":2016},{"buffer":0,"byteOffset":112896,"byteLength":6048},{"buffer":0,"byteOffset":118944,"byteLength":6048},{"buffer":0,"byteOffset":124992,"byteLength":2016},{"buffer":0,"byteOffset":127008,"byteLength":432},{"buffer":0,"byteOffset":127440,"byteLength":432},{"buffer":0,"byteOffset":127872,"byteLength":144},{"buffer":0,"byteOffset":128016,"byteLength":6048},{"buffer":0,"byteOffset":134064,"byteLength":6048},{"buffer":0,"byteOffset":140112,"byteLength":2016},{"buffer":0,"byteOffset":142128,"byteLength":6048},{"buffer":0,"byteOffset":148176,"byteLength":6048},{"buffer":0,"byteOffset":154224,"byteLength":2016},{"buffer":0,"byteOffset":156240,"byteLength":6048},{"buffer":0,"byteOffset":162288,"byteLength":6048},{"buffer":0,"byteOffset":168336,"byteLength":2016},{"buffer":0,"byteOffset":170352,"byteLength":432},{"buffer":0,"byteOffset":170784,"byteLength":432},{"buffer":0,"byteOffset":171216,"byteLength":144},{"buffer":0,"byteOffset":171360,"byteLength":6048},{"buffer":0,"byteOffset":177408,"byteLength":6048},{"buffer":0,"byteOffset":183456,"byteLength":2016},{"buffer":0,"byteOffset":185472,"byteLength":6048},{"buffer":0,"byteOffset":191520,"byteLength":6048},{"buffer":0,"byteOffset":197568,"byteLength":2016},{"buffer":0,"byteOffset":199584,"byteLength":432},{"buffer":0,"byteOffset":200016,"byteLength":432},{"buffer":0,"byteOffset":200448,"byteLength":144},{"buffer":0,"byteOffset":200592,"byteLength":6048},{"buffer":0,"byteOffset":206640,"byteLength":6048},{"buffer":0,"byteOffset":212688,"byteLength":2016},{"buffer":0,"byteOffset":214704,"byteLength":432},{"buffer":0,"byteOffset":215136,"byteLength":432},{"buffer":0,"byteOffset":215568,"byteLength":144},{"buffer":0,"byteOffset":215712,"byteLength":6048},{"buffer":0,"byteOffset":221760,"byteLength":6048},{"buffer":0,"byteOffset":227808,"byteLength":2016},{"buffer":0,"byteOffset":229824,"byteLength":6048},{"buffer":0,"byteOffset":235872,"byteLength":6048},{"buffer":0,"byteOffset":241920,"byteLength":2016},{"buffer":0,"byteOffset":243936,"byteLength":432},{"buffer":0,"byteOffset":244368,"byteLength":432},{"buffer":0,"byteOffset":244800,"byteLength":144},{"buffer":0,"byteOffset":244944,"byteLength":6048},{"buffer":0,"byteOffset":250992,"byteLength":6048},{"buffer":0,"byteOffset":257040,"byteLength":2016},{"buffer":0,"byteOffset":259056,"byteLength":432},{"buffer":0,"byteOffset":259488,"byteLength":432},{"buffer":0,"byteOffset":259920,"byteLength":144},{"buffer":0,"byteOffset":260064,"byteLength":432},{"buffer":0,"byteOffset":260496,"byteLength":432},{"buffer":0,"byteOffset":260928,"byteLength":144},{"buffer":0,"byteOffset":261072,"byteLength":432},{"buffer":0,"byteOffset":261504,"byteLength":432},{"buffer":0,"byteOffset":261936,"byteLength":144},{"buffer":0,"byteOffset":262080,"byteLength":432},{"buffer":0,"byteOffset":262512,"byteLength":432},{"buffer":0,"byteOffset":262944,"byteLength":144},{"buffer":0,"byteOffset":263088,"byteLength":432},{"buffer":0,"byteOffset":263520,"byteLength":432},{"buffer":0,"byteOffset":263952,"byteLength":144}],"buffers":[{"byteLength":264096,"uri":"data:application/octet-stream;base64,"}]}